<?xml version="1.0" encoding="UTF-8"?>
<!DOCTYPE svg PUBLIC "-//W3C//DTD SVG 1.1//EN" "http://www.w3.org/Graphics/SVG/1.1/DTD/svg11.dtd">
<svg xmlns="http://www.w3.org/2000/svg" version="1.1" width="128px" height="128px" style="shape-rendering:geometricPrecision; text-rendering:geometricPrecision; image-rendering:optimizeQuality; fill-rule:evenodd; clip-rule:evenodd" xmlns:xlink="http://www.w3.org/1999/xlink">
<g><path style="opacity:1" fill="#6e5a38" d="M -0.5,-0.5 C 42.1667,-0.5 84.8333,-0.5 127.5,-0.5C 127.5,1.5 127.5,3.5 127.5,5.5C 84.8333,5.5 42.1667,5.5 -0.5,5.5C -0.5,3.5 -0.5,1.5 -0.5,-0.5 Z"/></g>
<g><path style="opacity:1" fill="#483522" d="M -0.5,5.5 C 42.1667,5.5 84.8333,5.5 127.5,5.5C 127.5,6.16667 127.5,6.83333 127.5,7.5C 84.8333,7.5 42.1667,7.5 -0.5,7.5C -0.5,6.83333 -0.5,6.16667 -0.5,5.5 Z"/></g>
<g><path style="opacity:1" fill="#6e5b38" d="M -0.5,7.5 C 42.1667,7.5 84.8333,7.5 127.5,7.5C 127.5,9.5 127.5,11.5 127.5,13.5C 84.8333,13.5 42.1667,13.5 -0.5,13.5C -0.5,11.5 -0.5,9.5 -0.5,7.5 Z"/></g>
<g><path style="opacity:1" fill="#422819" d="M -0.5,13.5 C 42.1667,13.5 84.8333,13.5 127.5,13.5C 127.5,14.1667 127.5,14.8333 127.5,15.5C 114.167,15.5 100.833,15.5 87.5,15.5C 87.5,17.5 87.5,19.5 87.5,21.5C 100.833,21.5 114.167,21.5 127.5,21.5C 127.5,22.1667 127.5,22.8333 127.5,23.5C 116.833,23.5 106.167,23.5 95.5,23.5C 95.5,25.5 95.5,27.5 95.5,29.5C 106.167,29.5 116.833,29.5 127.5,29.5C 127.5,30.1667 127.5,30.8333 127.5,31.5C 116.833,31.5 106.167,31.5 95.5,31.5C 95.5,33.5 95.5,35.5 95.5,37.5C 106.167,37.5 116.833,37.5 127.5,37.5C 127.5,38.1667 127.5,38.8333 127.5,39.5C 120.833,39.5 114.167,39.5 107.5,39.5C 106.167,39.5 104.833,39.5 103.5,39.5C 103.5,40.8333 103.5,42.1667 103.5,43.5C 102.167,43.5 100.833,43.5 99.5,43.5C 99.5,42.1667 99.5,40.8333 99.5,39.5C 98.1667,39.5 96.8333,39.5 95.5,39.5C 95.5,40.8333 95.5,42.1667 95.5,43.5C 95.5,44.8333 95.5,46.1667 95.5,47.5C 92.8333,47.5 90.1667,47.5 87.5,47.5C 87.5,44.8333 87.5,42.1667 87.5,39.5C 84.8333,39.5 82.1667,39.5 79.5,39.5C 79.5,36.8333 79.5,34.1667 79.5,31.5C 76.8333,31.5 74.1667,31.5 71.5,31.5C 71.5,34.1667 71.5,36.8333 71.5,39.5C 68.8333,39.5 66.1667,39.5 63.5,39.5C 63.5,42.1667 63.5,44.8333 63.5,47.5C 60.8333,47.5 58.1667,47.5 55.5,47.5C 55.5,44.8333 55.5,42.1667 55.5,39.5C 50.1667,39.5 44.8333,39.5 39.5,39.5C 39.5,42.1667 39.5,44.8333 39.5,47.5C 36.8333,47.5 34.1667,47.5 31.5,47.5C 31.5,46.1667 31.5,44.8333 31.5,43.5C 31.5,42.1667 31.5,40.8333 31.5,39.5C 30.1667,39.5 28.8333,39.5 27.5,39.5C 20.8333,39.5 14.1667,39.5 7.5,39.5C 7.5,40.8333 7.5,42.1667 7.5,43.5C 6.16667,43.5 4.83333,43.5 3.5,43.5C 3.5,42.1667 3.5,40.8333 3.5,39.5C 2.16667,39.5 0.833333,39.5 -0.5,39.5C -0.5,38.8333 -0.5,38.1667 -0.5,37.5C 10.1667,37.5 20.8333,37.5 31.5,37.5C 31.5,35.5 31.5,33.5 31.5,31.5C 20.8333,31.5 10.1667,31.5 -0.5,31.5C -0.5,30.8333 -0.5,30.1667 -0.5,29.5C 10.1667,29.5 20.8333,29.5 31.5,29.5C 31.5,27.5 31.5,25.5 31.5,23.5C 20.8333,23.5 10.1667,23.5 -0.5,23.5C -0.5,22.8333 -0.5,22.1667 -0.5,21.5C 12.8333,21.5 26.1667,21.5 39.5,21.5C 39.5,19.5 39.5,17.5 39.5,15.5C 26.1667,15.5 12.8333,15.5 -0.5,15.5C -0.5,14.8333 -0.5,14.1667 -0.5,13.5 Z"/></g>
<g><path style="opacity:1" fill="#6d5a37" d="M -0.5,15.5 C 12.8333,15.5 26.1667,15.5 39.5,15.5C 39.5,17.5 39.5,19.5 39.5,21.5C 26.1667,21.5 12.8333,21.5 -0.5,21.5C -0.5,19.5 -0.5,17.5 -0.5,15.5 Z"/></g>
<g><path style="opacity:1" fill="#6d5a37" d="M 127.5,15.5 C 127.5,17.5 127.5,19.5 127.5,21.5C 114.167,21.5 100.833,21.5 87.5,21.5C 87.5,19.5 87.5,17.5 87.5,15.5C 100.833,15.5 114.167,15.5 127.5,15.5 Z"/></g>
<g><path style="opacity:1" fill="#6e5c39" d="M -0.5,23.5 C 10.1667,23.5 20.8333,23.5 31.5,23.5C 31.5,25.5 31.5,27.5 31.5,29.5C 20.8333,29.5 10.1667,29.5 -0.5,29.5C -0.5,27.5 -0.5,25.5 -0.5,23.5 Z"/></g>
<g><path style="opacity:1" fill="#6e5c39" d="M 127.5,23.5 C 127.5,25.5 127.5,27.5 127.5,29.5C 116.833,29.5 106.167,29.5 95.5,29.5C 95.5,27.5 95.5,25.5 95.5,23.5C 106.167,23.5 116.833,23.5 127.5,23.5 Z"/></g>
<g><path style="opacity:1" fill="#6e5b39" d="M -0.5,31.5 C 10.1667,31.5 20.8333,31.5 31.5,31.5C 31.5,33.5 31.5,35.5 31.5,37.5C 20.8333,37.5 10.1667,37.5 -0.5,37.5C -0.5,35.5 -0.5,33.5 -0.5,31.5 Z"/></g>
<g><path style="opacity:1" fill="#6e5b39" d="M 127.5,31.5 C 127.5,33.5 127.5,35.5 127.5,37.5C 116.833,37.5 106.167,37.5 95.5,37.5C 95.5,35.5 95.5,33.5 95.5,31.5C 106.167,31.5 116.833,31.5 127.5,31.5 Z"/></g>
<g><path style="opacity:1" fill="#5ab3ff" d="M -0.5,39.5 C 0.833333,39.5 2.16667,39.5 3.5,39.5C 3.5,40.8333 3.5,42.1667 3.5,43.5C 2.16667,43.5 0.833333,43.5 -0.5,43.5C -0.5,42.1667 -0.5,40.8333 -0.5,39.5 Z"/></g>
<g><path style="opacity:1" fill="#5ab3ff" d="M 27.5,39.5 C 28.8333,39.5 30.1667,39.5 31.5,39.5C 31.5,40.8333 31.5,42.1667 31.5,43.5C 30.1667,43.5 28.8333,43.5 27.5,43.5C 27.5,42.1667 27.5,40.8333 27.5,39.5 Z"/></g>
<g><path style="opacity:1" fill="#f7c289" d="M 55.5,47.5 C 52.8333,47.5 50.1667,47.5 47.5,47.5C 44.8333,47.5 42.1667,47.5 39.5,47.5C 39.5,44.8333 39.5,42.1667 39.5,39.5C 44.8333,39.5 50.1667,39.5 55.5,39.5C 55.5,42.1667 55.5,44.8333 55.5,47.5 Z"/></g>
<g><path style="opacity:1" fill="#f9c68d" d="M 87.5,47.5 C 90.1667,47.5 92.8333,47.5 95.5,47.5C 95.5,50.1667 95.5,52.8333 95.5,55.5C 95.5,59.5 95.5,63.5 95.5,67.5C 95.5,68.8333 95.5,70.1667 95.5,71.5C 94.1667,71.5 92.8333,71.5 91.5,71.5C 90.1667,71.5 88.8333,71.5 87.5,71.5C 87.5,74.1667 87.5,76.8333 87.5,79.5C 84.8333,79.5 82.1667,79.5 79.5,79.5C 68.8333,79.5 58.1667,79.5 47.5,79.5C 44.8333,79.5 42.1667,79.5 39.5,79.5C 39.5,76.8333 39.5,74.1667 39.5,71.5C 38.1667,71.5 36.8333,71.5 35.5,71.5C 34.1667,71.5 32.8333,71.5 31.5,71.5C 31.5,70.1667 31.5,68.8333 31.5,67.5C 31.5,64.8333 31.5,62.1667 31.5,59.5C 31.5,58.1667 31.5,56.8333 31.5,55.5C 31.5,52.8333 31.5,50.1667 31.5,47.5C 34.1667,47.5 36.8333,47.5 39.5,47.5C 39.5,52.8333 39.5,58.1667 39.5,63.5C 42.1667,63.5 44.8333,63.5 47.5,63.5C 50.1667,63.5 52.8333,63.5 55.5,63.5C 55.5,58.1667 55.5,52.8333 55.5,47.5C 58.1667,47.5 60.8333,47.5 63.5,47.5C 63.5,44.8333 63.5,42.1667 63.5,39.5C 66.1667,39.5 68.8333,39.5 71.5,39.5C 71.5,36.8333 71.5,34.1667 71.5,31.5C 74.1667,31.5 76.8333,31.5 79.5,31.5C 79.5,34.1667 79.5,36.8333 79.5,39.5C 82.1667,39.5 84.8333,39.5 87.5,39.5C 87.5,42.1667 87.5,44.8333 87.5,47.5 Z"/></g>
<g><path style="opacity:1" fill="#005c5c" d="M 99.5,43.5 C 98.1667,43.5 96.8333,43.5 95.5,43.5C 95.5,42.1667 95.5,40.8333 95.5,39.5C 96.8333,39.5 98.1667,39.5 99.5,39.5C 99.5,40.8333 99.5,42.1667 99.5,43.5 Z"/></g>
<g><path style="opacity:1" fill="#6f836b" d="M 107.5,39.5 C 114.167,39.5 120.833,39.5 127.5,39.5C 127.5,42.1667 127.5,44.8333 127.5,47.5C 126.167,47.5 124.833,47.5 123.5,47.5C 123.5,46.1667 123.5,44.8333 123.5,43.5C 118.167,42.1667 112.833,40.8333 107.5,39.5 Z"/></g>
<g><path style="opacity:1" fill="#5ab3ff" d="M 3.5,43.5 C 4.83333,43.5 6.16667,43.5 7.5,43.5C 7.5,44.8333 7.5,46.1667 7.5,47.5C 6.16667,47.5 4.83333,47.5 3.5,47.5C 3.5,46.1667 3.5,44.8333 3.5,43.5 Z"/></g>
<g><path style="opacity:1" fill="#5ab3ff" d="M 27.5,43.5 C 27.5,44.8333 27.5,46.1667 27.5,47.5C 26.1667,47.5 24.8333,47.5 23.5,47.5C 23.5,46.1667 23.5,44.8333 23.5,43.5C 24.8333,43.5 26.1667,43.5 27.5,43.5 Z"/></g>
<g><path style="opacity:1" fill="#005c5c" d="M 99.5,43.5 C 100.833,43.5 102.167,43.5 103.5,43.5C 103.5,44.8333 103.5,46.1667 103.5,47.5C 102.167,47.5 100.833,47.5 99.5,47.5C 99.5,46.1667 99.5,44.8333 99.5,43.5 Z"/></g>
<g><path style="opacity:1" fill="#005c5c" d="M 123.5,43.5 C 123.5,44.8333 123.5,46.1667 123.5,47.5C 122.167,47.5 120.833,47.5 119.5,47.5C 119.5,46.1667 119.5,44.8333 119.5,43.5C 120.833,43.5 122.167,43.5 123.5,43.5 Z"/></g>
<g><path style="opacity:1" fill="#645133" d="M 27.5,39.5 C 27.5,40.8333 27.5,42.1667 27.5,43.5C 26.1667,43.5 24.8333,43.5 23.5,43.5C 23.5,44.8333 23.5,46.1667 23.5,47.5C 22.1667,47.5 20.8333,47.5 19.5,47.5C 19.5,48.8333 19.5,50.1667 19.5,51.5C 16.8333,51.5 14.1667,51.5 11.5,51.5C 11.5,50.1667 11.5,48.8333 11.5,47.5C 10.1667,47.5 8.83333,47.5 7.5,47.5C 7.5,46.1667 7.5,44.8333 7.5,43.5C 7.5,42.1667 7.5,40.8333 7.5,39.5C 14.1667,39.5 20.8333,39.5 27.5,39.5 Z"/></g>
<g><path style="opacity:1" fill="#5f4a2e" d="M 107.5,39.5 C 112.833,40.8333 118.167,42.1667 123.5,43.5C 122.167,43.5 120.833,43.5 119.5,43.5C 119.5,44.8333 119.5,46.1667 119.5,47.5C 118.167,47.5 116.833,47.5 115.5,47.5C 115.5,48.8333 115.5,50.1667 115.5,51.5C 112.833,51.5 110.167,51.5 107.5,51.5C 107.5,50.1667 107.5,48.8333 107.5,47.5C 106.167,47.5 104.833,47.5 103.5,47.5C 103.5,46.1667 103.5,44.8333 103.5,43.5C 103.5,42.1667 103.5,40.8333 103.5,39.5C 104.833,39.5 106.167,39.5 107.5,39.5 Z"/></g>
<g><path style="opacity:1" fill="#e5f6f6" d="M -0.5,43.5 C 0.833333,43.5 2.16667,43.5 3.5,43.5C 3.5,44.8333 3.5,46.1667 3.5,47.5C 4.83333,47.5 6.16667,47.5 7.5,47.5C 7.5,48.8333 7.5,50.1667 7.5,51.5C 7.5,52.8333 7.5,54.1667 7.5,55.5C 6.16667,55.5 4.83333,55.5 3.5,55.5C 2.16667,55.5 0.833333,55.5 -0.5,55.5C -0.5,51.5 -0.5,47.5 -0.5,43.5 Z"/></g>
<g><path style="opacity:1" fill="#3b7fff" d="M 7.5,47.5 C 8.83333,47.5 10.1667,47.5 11.5,47.5C 11.5,48.8333 11.5,50.1667 11.5,51.5C 10.1667,51.5 8.83333,51.5 7.5,51.5C 7.5,50.1667 7.5,48.8333 7.5,47.5 Z"/></g>
<g><path style="opacity:1" fill="#3b7fff" d="M 23.5,47.5 C 23.5,48.8333 23.5,50.1667 23.5,51.5C 22.1667,51.5 20.8333,51.5 19.5,51.5C 19.5,50.1667 19.5,48.8333 19.5,47.5C 20.8333,47.5 22.1667,47.5 23.5,47.5 Z"/></g>
<g><path style="opacity:1" fill="#e5f6f6" d="M 27.5,43.5 C 28.8333,43.5 30.1667,43.5 31.5,43.5C 31.5,44.8333 31.5,46.1667 31.5,47.5C 31.5,50.1667 31.5,52.8333 31.5,55.5C 30.1667,55.5 28.8333,55.5 27.5,55.5C 26.1667,55.5 24.8333,55.5 23.5,55.5C 23.5,54.1667 23.5,52.8333 23.5,51.5C 23.5,50.1667 23.5,48.8333 23.5,47.5C 24.8333,47.5 26.1667,47.5 27.5,47.5C 27.5,46.1667 27.5,44.8333 27.5,43.5 Z"/></g>
<g><path style="opacity:1" fill="#fefffe" d="M 39.5,47.5 C 42.1667,47.5 44.8333,47.5 47.5,47.5C 47.5,52.8333 47.5,58.1667 47.5,63.5C 44.8333,63.5 42.1667,63.5 39.5,63.5C 39.5,58.1667 39.5,52.8333 39.5,47.5 Z"/></g>
<g><path style="opacity:1" fill="#000000" d="M 47.5,47.5 C 50.1667,47.5 52.8333,47.5 55.5,47.5C 55.5,52.8333 55.5,58.1667 55.5,63.5C 52.8333,63.5 50.1667,63.5 47.5,63.5C 47.5,58.1667 47.5,52.8333 47.5,47.5 Z"/></g>
<g><path style="opacity:1" fill="#000000" d="M 79.5,47.5 C 79.5,52.8333 79.5,58.1667 79.5,63.5C 76.8333,63.5 74.1667,63.5 71.5,63.5C 71.5,58.1667 71.5,52.8333 71.5,47.5C 74.1667,47.5 76.8333,47.5 79.5,47.5 Z"/></g>
<g><path style="opacity:1" fill="#fefffe" d="M 79.5,47.5 C 82.1667,47.5 84.8333,47.5 87.5,47.5C 87.5,52.8333 87.5,58.1667 87.5,63.5C 84.8333,63.5 82.1667,63.5 79.5,63.5C 79.5,58.1667 79.5,52.8333 79.5,47.5 Z"/></g>
<g><path style="opacity:1" fill="#d6ece5" d="M 95.5,43.5 C 96.8333,43.5 98.1667,43.5 99.5,43.5C 99.5,44.8333 99.5,46.1667 99.5,47.5C 100.833,47.5 102.167,47.5 103.5,47.5C 103.5,50.1667 103.5,52.8333 103.5,55.5C 100.833,55.5 98.1667,55.5 95.5,55.5C 95.5,52.8333 95.5,50.1667 95.5,47.5C 95.5,46.1667 95.5,44.8333 95.5,43.5 Z"/></g>
<g><path style="opacity:1" fill="#e6f3ef" d="M 119.5,47.5 C 120.833,47.5 122.167,47.5 123.5,47.5C 124.833,47.5 126.167,47.5 127.5,47.5C 127.5,50.1667 127.5,52.8333 127.5,55.5C 124.833,55.5 122.167,55.5 119.5,55.5C 119.5,52.8333 119.5,50.1667 119.5,47.5 Z"/></g>
<g><path style="opacity:1" fill="#5ab3ff" d="M 7.5,51.5 C 8.83333,51.5 10.1667,51.5 11.5,51.5C 14.1667,51.5 16.8333,51.5 19.5,51.5C 20.8333,51.5 22.1667,51.5 23.5,51.5C 23.5,52.8333 23.5,54.1667 23.5,55.5C 24.8333,55.5 26.1667,55.5 27.5,55.5C 27.5,56.8333 27.5,58.1667 27.5,59.5C 28.8333,59.5 30.1667,59.5 31.5,59.5C 31.5,62.1667 31.5,64.8333 31.5,67.5C 30.1667,67.5 28.8333,67.5 27.5,67.5C 27.5,66.1667 27.5,64.8333 27.5,63.5C 26.1667,63.5 24.8333,63.5 23.5,63.5C 22.1667,63.5 20.8333,63.5 19.5,63.5C 19.5,66.1667 19.5,68.8333 19.5,71.5C 16.8333,71.5 14.1667,71.5 11.5,71.5C 11.5,68.8333 11.5,66.1667 11.5,63.5C 10.1667,63.5 8.83333,63.5 7.5,63.5C 6.16667,63.5 4.83333,63.5 3.5,63.5C 3.5,64.8333 3.5,66.1667 3.5,67.5C 2.16667,67.5 0.833333,67.5 -0.5,67.5C -0.5,64.8333 -0.5,62.1667 -0.5,59.5C 0.833333,59.5 2.16667,59.5 3.5,59.5C 3.5,58.1667 3.5,56.8333 3.5,55.5C 4.83333,55.5 6.16667,55.5 7.5,55.5C 7.5,54.1667 7.5,52.8333 7.5,51.5 Z"/></g>
<g><path style="opacity:1" fill="#00585a" d="M 103.5,47.5 C 104.833,47.5 106.167,47.5 107.5,47.5C 107.5,48.8333 107.5,50.1667 107.5,51.5C 110.167,51.5 112.833,51.5 115.5,51.5C 115.5,50.1667 115.5,48.8333 115.5,47.5C 116.833,47.5 118.167,47.5 119.5,47.5C 119.5,50.1667 119.5,52.8333 119.5,55.5C 122.167,55.5 124.833,55.5 127.5,55.5C 127.5,59.5 127.5,63.5 127.5,67.5C 126.167,67.5 124.833,67.5 123.5,67.5C 123.5,66.1667 123.5,64.8333 123.5,63.5C 122.167,63.5 120.833,63.5 119.5,63.5C 118.167,63.5 116.833,63.5 115.5,63.5C 115.5,64.8333 115.5,66.1667 115.5,67.5C 115.5,68.8333 115.5,70.1667 115.5,71.5C 112.833,71.5 110.167,71.5 107.5,71.5C 107.5,70.1667 107.5,68.8333 107.5,67.5C 107.5,66.1667 107.5,64.8333 107.5,63.5C 106.167,63.5 104.833,63.5 103.5,63.5C 102.167,63.5 100.833,63.5 99.5,63.5C 99.5,64.8333 99.5,66.1667 99.5,67.5C 98.1667,67.5 96.8333,67.5 95.5,67.5C 95.5,63.5 95.5,59.5 95.5,55.5C 98.1667,55.5 100.833,55.5 103.5,55.5C 103.5,52.8333 103.5,50.1667 103.5,47.5 Z"/></g>
<g><path style="opacity:1" fill="#3b7fff" d="M -0.5,55.5 C 0.833333,55.5 2.16667,55.5 3.5,55.5C 3.5,56.8333 3.5,58.1667 3.5,59.5C 2.16667,59.5 0.833333,59.5 -0.5,59.5C -0.5,58.1667 -0.5,56.8333 -0.5,55.5 Z"/></g>
<g><path style="opacity:1" fill="#3b7fff" d="M 27.5,55.5 C 28.8333,55.5 30.1667,55.5 31.5,55.5C 31.5,56.8333 31.5,58.1667 31.5,59.5C 30.1667,59.5 28.8333,59.5 27.5,59.5C 27.5,58.1667 27.5,56.8333 27.5,55.5 Z"/></g>
<g><path style="opacity:1" fill="#f7fcfc" d="M 7.5,63.5 C 7.5,66.1667 7.5,68.8333 7.5,71.5C 8.83333,71.5 10.1667,71.5 11.5,71.5C 11.5,72.8333 11.5,74.1667 11.5,75.5C 14.1667,75.5 16.8333,75.5 19.5,75.5C 19.5,74.1667 19.5,72.8333 19.5,71.5C 20.8333,71.5 22.1667,71.5 23.5,71.5C 23.5,68.8333 23.5,66.1667 23.5,63.5C 24.8333,63.5 26.1667,63.5 27.5,63.5C 27.5,64.8333 27.5,66.1667 27.5,67.5C 28.8333,67.5 30.1667,67.5 31.5,67.5C 31.5,68.8333 31.5,70.1667 31.5,71.5C 32.8333,71.5 34.1667,71.5 35.5,71.5C 35.5,72.8333 35.5,74.1667 35.5,75.5C 32.8333,75.5 30.1667,75.5 27.5,75.5C 27.5,76.8333 27.5,78.1667 27.5,79.5C 26.1667,79.5 24.8333,79.5 23.5,79.5C 18.1667,79.5 12.8333,79.5 7.5,79.5C 6.16667,79.5 4.83333,79.5 3.5,79.5C 3.5,78.1667 3.5,76.8333 3.5,75.5C 2.16667,75.5 0.833333,75.5 -0.5,75.5C -0.5,72.8333 -0.5,70.1667 -0.5,67.5C 0.833333,67.5 2.16667,67.5 3.5,67.5C 3.5,66.1667 3.5,64.8333 3.5,63.5C 4.83333,63.5 6.16667,63.5 7.5,63.5 Z"/></g>
<g><path style="opacity:1" fill="#f2f9f7" d="M 103.5,63.5 C 103.5,64.8333 103.5,66.1667 103.5,67.5C 103.5,68.8333 103.5,70.1667 103.5,71.5C 104.833,71.5 106.167,71.5 107.5,71.5C 107.5,72.8333 107.5,74.1667 107.5,75.5C 110.167,75.5 112.833,75.5 115.5,75.5C 115.5,74.1667 115.5,72.8333 115.5,71.5C 116.833,71.5 118.167,71.5 119.5,71.5C 119.5,70.1667 119.5,68.8333 119.5,67.5C 119.5,66.1667 119.5,64.8333 119.5,63.5C 120.833,63.5 122.167,63.5 123.5,63.5C 123.5,64.8333 123.5,66.1667 123.5,67.5C 124.833,67.5 126.167,67.5 127.5,67.5C 127.5,70.1667 127.5,72.8333 127.5,75.5C 126.167,75.5 124.833,75.5 123.5,75.5C 123.5,76.8333 123.5,78.1667 123.5,79.5C 122.167,79.5 120.833,79.5 119.5,79.5C 114.167,79.5 108.833,79.5 103.5,79.5C 102.167,79.5 100.833,79.5 99.5,79.5C 99.5,78.1667 99.5,76.8333 99.5,75.5C 96.8333,75.5 94.1667,75.5 91.5,75.5C 91.5,74.1667 91.5,72.8333 91.5,71.5C 92.8333,71.5 94.1667,71.5 95.5,71.5C 95.5,70.1667 95.5,68.8333 95.5,67.5C 96.8333,67.5 98.1667,67.5 99.5,67.5C 99.5,66.1667 99.5,64.8333 99.5,63.5C 100.833,63.5 102.167,63.5 103.5,63.5 Z"/></g>
<g><path style="opacity:1" fill="#c16f00" d="M 103.5,63.5 C 104.833,63.5 106.167,63.5 107.5,63.5C 107.5,64.8333 107.5,66.1667 107.5,67.5C 106.167,67.5 104.833,67.5 103.5,67.5C 103.5,66.1667 103.5,64.8333 103.5,63.5 Z"/></g>
<g><path style="opacity:1" fill="#c16f00" d="M 119.5,63.5 C 119.5,64.8333 119.5,66.1667 119.5,67.5C 118.167,67.5 116.833,67.5 115.5,67.5C 115.5,66.1667 115.5,64.8333 115.5,63.5C 116.833,63.5 118.167,63.5 119.5,63.5 Z"/></g>
<g><path style="opacity:1" fill="#02465e" d="M 7.5,63.5 C 8.83333,63.5 10.1667,63.5 11.5,63.5C 11.5,66.1667 11.5,68.8333 11.5,71.5C 10.1667,71.5 8.83333,71.5 7.5,71.5C 7.5,68.8333 7.5,66.1667 7.5,63.5 Z"/></g>
<g><path style="opacity:1" fill="#02465e" d="M 23.5,63.5 C 23.5,66.1667 23.5,68.8333 23.5,71.5C 22.1667,71.5 20.8333,71.5 19.5,71.5C 19.5,68.8333 19.5,66.1667 19.5,63.5C 20.8333,63.5 22.1667,63.5 23.5,63.5 Z"/></g>
<g><path style="opacity:1" fill="#623311" d="M 103.5,67.5 C 104.833,67.5 106.167,67.5 107.5,67.5C 107.5,68.8333 107.5,70.1667 107.5,71.5C 106.167,71.5 104.833,71.5 103.5,71.5C 103.5,70.1667 103.5,68.8333 103.5,67.5 Z"/></g>
<g><path style="opacity:1" fill="#623311" d="M 115.5,67.5 C 116.833,67.5 118.167,67.5 119.5,67.5C 119.5,68.8333 119.5,70.1667 119.5,71.5C 118.167,71.5 116.833,71.5 115.5,71.5C 115.5,70.1667 115.5,68.8333 115.5,67.5 Z"/></g>
<g><path style="opacity:1" fill="#001c41" d="M 11.5,71.5 C 14.1667,71.5 16.8333,71.5 19.5,71.5C 19.5,72.8333 19.5,74.1667 19.5,75.5C 16.8333,75.5 14.1667,75.5 11.5,75.5C 11.5,74.1667 11.5,72.8333 11.5,71.5 Z"/></g>
<g><path style="opacity:1" fill="#001c41" d="M 107.5,71.5 C 110.167,71.5 112.833,71.5 115.5,71.5C 115.5,72.8333 115.5,74.1667 115.5,75.5C 112.833,75.5 110.167,75.5 107.5,75.5C 107.5,74.1667 107.5,72.8333 107.5,71.5 Z"/></g>
<g><path style="opacity:1" fill="#644f31" d="M 35.5,71.5 C 36.8333,71.5 38.1667,71.5 39.5,71.5C 39.5,74.1667 39.5,76.8333 39.5,79.5C 42.1667,79.5 44.8333,79.5 47.5,79.5C 47.5,82.1667 47.5,84.8333 47.5,87.5C 43.5,87.5 39.5,87.5 35.5,87.5C 35.5,86.1667 35.5,84.8333 35.5,83.5C 34.1667,83.5 32.8333,83.5 31.5,83.5C 31.5,82.1667 31.5,80.8333 31.5,79.5C 30.1667,79.5 28.8333,79.5 27.5,79.5C 27.5,78.1667 27.5,76.8333 27.5,75.5C 30.1667,75.5 32.8333,75.5 35.5,75.5C 35.5,74.1667 35.5,72.8333 35.5,71.5 Z"/></g>
<g><path style="opacity:1" fill="#523d26" d="M -0.5,75.5 C 0.833333,75.5 2.16667,75.5 3.5,75.5C 3.5,76.8333 3.5,78.1667 3.5,79.5C 2.16667,79.5 0.833333,79.5 -0.5,79.5C -0.5,78.1667 -0.5,76.8333 -0.5,75.5 Z"/></g>
<g><path style="opacity:1" fill="#533e27" d="M 127.5,75.5 C 127.5,76.8333 127.5,78.1667 127.5,79.5C 126.167,79.5 124.833,79.5 123.5,79.5C 123.5,78.1667 123.5,76.8333 123.5,75.5C 124.833,75.5 126.167,75.5 127.5,75.5 Z"/></g>
<g><path style="opacity:1" fill="#5ab3ff" d="M -0.5,79.5 C 0.833333,79.5 2.16667,79.5 3.5,79.5C 4.83333,79.5 6.16667,79.5 7.5,79.5C 7.5,80.8333 7.5,82.1667 7.5,83.5C 6.16667,83.5 4.83333,83.5 3.5,83.5C 3.5,84.8333 3.5,86.1667 3.5,87.5C 4.83333,87.5 6.16667,87.5 7.5,87.5C 7.5,88.8333 7.5,90.1667 7.5,91.5C 6.16667,91.5 4.83333,91.5 3.5,91.5C 3.5,92.8333 3.5,94.1667 3.5,95.5C 2.16667,95.5 0.833333,95.5 -0.5,95.5C -0.5,90.1667 -0.5,84.8333 -0.5,79.5 Z"/></g>
<g><path style="opacity:1" fill="#aee6e4" d="M 7.5,79.5 C 12.8333,79.5 18.1667,79.5 23.5,79.5C 23.5,80.8333 23.5,82.1667 23.5,83.5C 18.1667,83.5 12.8333,83.5 7.5,83.5C 7.5,82.1667 7.5,80.8333 7.5,79.5 Z"/></g>
<g><path style="opacity:1" fill="#5ab3ff" d="M 23.5,79.5 C 24.8333,79.5 26.1667,79.5 27.5,79.5C 28.8333,79.5 30.1667,79.5 31.5,79.5C 31.5,80.8333 31.5,82.1667 31.5,83.5C 31.5,84.8333 31.5,86.1667 31.5,87.5C 31.5,90.1667 31.5,92.8333 31.5,95.5C 30.1667,95.5 28.8333,95.5 27.5,95.5C 27.5,94.1667 27.5,92.8333 27.5,91.5C 26.1667,91.5 24.8333,91.5 23.5,91.5C 23.5,90.1667 23.5,88.8333 23.5,87.5C 24.8333,87.5 26.1667,87.5 27.5,87.5C 27.5,86.1667 27.5,84.8333 27.5,83.5C 26.1667,83.5 24.8333,83.5 23.5,83.5C 23.5,82.1667 23.5,80.8333 23.5,79.5 Z"/></g>
<g><path style="opacity:1" fill="#e8aa6f" d="M 47.5,79.5 C 58.1667,79.5 68.8333,79.5 79.5,79.5C 79.5,82.1667 79.5,84.8333 79.5,87.5C 68.8333,87.5 58.1667,87.5 47.5,87.5C 47.5,84.8333 47.5,82.1667 47.5,79.5 Z"/></g>
<g><path style="opacity:1" fill="#00595a" d="M 99.5,79.5 C 100.833,79.5 102.167,79.5 103.5,79.5C 103.5,80.8333 103.5,82.1667 103.5,83.5C 102.167,83.5 100.833,83.5 99.5,83.5C 99.5,84.8333 99.5,86.1667 99.5,87.5C 100.833,87.5 102.167,87.5 103.5,87.5C 103.5,88.8333 103.5,90.1667 103.5,91.5C 102.167,91.5 100.833,91.5 99.5,91.5C 99.5,92.8333 99.5,94.1667 99.5,95.5C 98.1667,95.5 96.8333,95.5 95.5,95.5C 95.5,92.8333 95.5,90.1667 95.5,87.5C 94.1667,87.5 92.8333,87.5 91.5,87.5C 91.5,86.1667 91.5,84.8333 91.5,83.5C 92.8333,83.5 94.1667,83.5 95.5,83.5C 95.5,82.1667 95.5,80.8333 95.5,79.5C 96.8333,79.5 98.1667,79.5 99.5,79.5 Z"/></g>
<g><path style="opacity:1" fill="#fed638" d="M 103.5,79.5 C 108.833,79.5 114.167,79.5 119.5,79.5C 119.5,80.8333 119.5,82.1667 119.5,83.5C 114.167,83.5 108.833,83.5 103.5,83.5C 103.5,82.1667 103.5,80.8333 103.5,79.5 Z"/></g>
<g><path style="opacity:1" fill="#685736" d="M 91.5,71.5 C 91.5,72.8333 91.5,74.1667 91.5,75.5C 94.1667,75.5 96.8333,75.5 99.5,75.5C 99.5,76.8333 99.5,78.1667 99.5,79.5C 98.1667,79.5 96.8333,79.5 95.5,79.5C 95.5,80.8333 95.5,82.1667 95.5,83.5C 94.1667,83.5 92.8333,83.5 91.5,83.5C 91.5,84.8333 91.5,86.1667 91.5,87.5C 87.5,87.5 83.5,87.5 79.5,87.5C 79.5,84.8333 79.5,82.1667 79.5,79.5C 82.1667,79.5 84.8333,79.5 87.5,79.5C 87.5,76.8333 87.5,74.1667 87.5,71.5C 88.8333,71.5 90.1667,71.5 91.5,71.5 Z"/></g>
<g><path style="opacity:1" fill="#fcfefe" d="M 7.5,83.5 C 12.8333,83.5 18.1667,83.5 23.5,83.5C 24.8333,83.5 26.1667,83.5 27.5,83.5C 27.5,84.8333 27.5,86.1667 27.5,87.5C 26.1667,87.5 24.8333,87.5 23.5,87.5C 23.5,88.8333 23.5,90.1667 23.5,91.5C 24.8333,91.5 26.1667,91.5 27.5,91.5C 27.5,92.8333 27.5,94.1667 27.5,95.5C 26.1667,95.5 24.8333,95.5 23.5,95.5C 23.5,98.1667 23.5,100.833 23.5,103.5C 20.8333,103.5 18.1667,103.5 15.5,103.5C 15.5,111.5 15.5,119.5 15.5,127.5C 14.1667,127.5 12.8333,127.5 11.5,127.5C 11.5,126.167 11.5,124.833 11.5,123.5C 10.1667,123.5 8.83333,123.5 7.5,123.5C 7.5,114.167 7.5,104.833 7.5,95.5C 6.16667,95.5 4.83333,95.5 3.5,95.5C 3.5,94.1667 3.5,92.8333 3.5,91.5C 4.83333,91.5 6.16667,91.5 7.5,91.5C 7.5,90.1667 7.5,88.8333 7.5,87.5C 6.16667,87.5 4.83333,87.5 3.5,87.5C 3.5,86.1667 3.5,84.8333 3.5,83.5C 4.83333,83.5 6.16667,83.5 7.5,83.5 Z"/></g>
<g><path style="opacity:1" fill="#3b7fff" d="M 31.5,83.5 C 32.8333,83.5 34.1667,83.5 35.5,83.5C 35.5,84.8333 35.5,86.1667 35.5,87.5C 34.1667,87.5 32.8333,87.5 31.5,87.5C 31.5,86.1667 31.5,84.8333 31.5,83.5 Z"/></g>
<g><path style="opacity:1" fill="#fefffe" d="M 103.5,83.5 C 108.833,83.5 114.167,83.5 119.5,83.5C 120.833,83.5 122.167,83.5 123.5,83.5C 123.5,84.8333 123.5,86.1667 123.5,87.5C 122.167,87.5 120.833,87.5 119.5,87.5C 119.5,88.8333 119.5,90.1667 119.5,91.5C 120.833,91.5 122.167,91.5 123.5,91.5C 123.5,92.8333 123.5,94.1667 123.5,95.5C 122.167,95.5 120.833,95.5 119.5,95.5C 118.167,95.5 116.833,95.5 115.5,95.5C 115.5,104.833 115.5,114.167 115.5,123.5C 114.167,123.5 112.833,123.5 111.5,123.5C 111.5,116.833 111.5,110.167 111.5,103.5C 110.167,103.5 108.833,103.5 107.5,103.5C 107.5,100.833 107.5,98.1667 107.5,95.5C 106.167,95.5 104.833,95.5 103.5,95.5C 102.167,95.5 100.833,95.5 99.5,95.5C 99.5,94.1667 99.5,92.8333 99.5,91.5C 100.833,91.5 102.167,91.5 103.5,91.5C 103.5,90.1667 103.5,88.8333 103.5,87.5C 102.167,87.5 100.833,87.5 99.5,87.5C 99.5,86.1667 99.5,84.8333 99.5,83.5C 100.833,83.5 102.167,83.5 103.5,83.5 Z"/></g>
<g><path style="opacity:1" fill="#8bd433" d="M 31.5,87.5 C 32.8333,87.5 34.1667,87.5 35.5,87.5C 39.5,87.5 43.5,87.5 47.5,87.5C 58.1667,87.5 68.8333,87.5 79.5,87.5C 83.5,87.5 87.5,87.5 91.5,87.5C 92.8333,87.5 94.1667,87.5 95.5,87.5C 95.5,90.1667 95.5,92.8333 95.5,95.5C 96.8333,95.5 98.1667,95.5 99.5,95.5C 100.833,95.5 102.167,95.5 103.5,95.5C 103.5,98.1667 103.5,100.833 103.5,103.5C 104.833,103.5 106.167,103.5 107.5,103.5C 108.833,103.5 110.167,103.5 111.5,103.5C 111.5,110.167 111.5,116.833 111.5,123.5C 111.5,124.833 111.5,126.167 111.5,127.5C 79.5,127.5 47.5,127.5 15.5,127.5C 15.5,119.5 15.5,111.5 15.5,103.5C 18.1667,103.5 20.8333,103.5 23.5,103.5C 23.5,100.833 23.5,98.1667 23.5,95.5C 24.8333,95.5 26.1667,95.5 27.5,95.5C 28.8333,95.5 30.1667,95.5 31.5,95.5C 31.5,92.8333 31.5,90.1667 31.5,87.5 Z"/></g>
<g><path style="opacity:1" fill="#3b7fff" d="M -0.5,95.5 C 0.833333,95.5 2.16667,95.5 3.5,95.5C 3.5,100.833 3.5,106.167 3.5,111.5C 2.16667,111.5 0.833333,111.5 -0.5,111.5C -0.5,106.167 -0.5,100.833 -0.5,95.5 Z"/></g>
<g><path style="opacity:1" fill="#5ab3ff" d="M 3.5,95.5 C 4.83333,95.5 6.16667,95.5 7.5,95.5C 7.5,104.833 7.5,114.167 7.5,123.5C 8.83333,123.5 10.1667,123.5 11.5,123.5C 11.5,124.833 11.5,126.167 11.5,127.5C 8.83333,127.5 6.16667,127.5 3.5,127.5C 3.5,122.167 3.5,116.833 3.5,111.5C 3.5,106.167 3.5,100.833 3.5,95.5 Z"/></g>
<g><path style="opacity:1" fill="#fed638" d="M 103.5,95.5 C 104.833,95.5 106.167,95.5 107.5,95.5C 107.5,98.1667 107.5,100.833 107.5,103.5C 106.167,103.5 104.833,103.5 103.5,103.5C 103.5,100.833 103.5,98.1667 103.5,95.5 Z"/></g>
<g><path style="opacity:1" fill="#fed638" d="M 119.5,95.5 C 119.5,104.833 119.5,114.167 119.5,123.5C 118.167,123.5 116.833,123.5 115.5,123.5C 115.5,114.167 115.5,104.833 115.5,95.5C 116.833,95.5 118.167,95.5 119.5,95.5 Z"/></g>
<g><path style="opacity:1" fill="#124f52" d="M 119.5,79.5 C 120.833,79.5 122.167,79.5 123.5,79.5C 124.833,79.5 126.167,79.5 127.5,79.5C 127.5,95.5 127.5,111.5 127.5,127.5C 126.167,127.5 124.833,127.5 123.5,127.5C 123.5,126.167 123.5,124.833 123.5,123.5C 122.167,123.5 120.833,123.5 119.5,123.5C 119.5,114.167 119.5,104.833 119.5,95.5C 120.833,95.5 122.167,95.5 123.5,95.5C 123.5,94.1667 123.5,92.8333 123.5,91.5C 122.167,91.5 120.833,91.5 119.5,91.5C 119.5,90.1667 119.5,88.8333 119.5,87.5C 120.833,87.5 122.167,87.5 123.5,87.5C 123.5,86.1667 123.5,84.8333 123.5,83.5C 122.167,83.5 120.833,83.5 119.5,83.5C 119.5,82.1667 119.5,80.8333 119.5,79.5 Z"/></g>
<g><path style="opacity:1" fill="#d7efef" d="M -0.5,111.5 C 0.833333,111.5 2.16667,111.5 3.5,111.5C 3.5,116.833 3.5,122.167 3.5,127.5C 2.16667,127.5 0.833333,127.5 -0.5,127.5C -0.5,122.167 -0.5,116.833 -0.5,111.5 Z"/></g>
<g><path style="opacity:1" fill="#001c41" d="M 111.5,123.5 C 112.833,123.5 114.167,123.5 115.5,123.5C 116.833,123.5 118.167,123.5 119.5,123.5C 120.833,123.5 122.167,123.5 123.5,123.5C 123.5,124.833 123.5,126.167 123.5,127.5C 119.5,127.5 115.5,127.5 111.5,127.5C 111.5,126.167 111.5,124.833 111.5,123.5 Z"/></g>
</svg>
